<?xml version="1.0" standalone="no"?>
<!DOCTYPE svg PUBLIC "-//W3C//DTD SVG 20010904//EN"
 "http://www.w3.org/TR/2001/REC-SVG-20010904/DTD/svg10.dtd">
<svg version="1.0" xmlns="http://www.w3.org/2000/svg"
 width="1148.000000pt" height="750.000000pt" viewBox="0 0 1148.000000 750.000000"
 preserveAspectRatio="xMidYMid meet">
<metadata>
Created by potrace 1.15, written by Peter Selinger 2001-2017
</metadata>
<g transform="translate(0.000000,750.000000) scale(0.100000,-0.100000)"
fill="#000000" stroke="none">
<path d="M2 7473 c2 -16 438 -675 967 -1467 718 -1072 960 -1440 950 -1447 -7
-4 -10 -11 -7 -15 4 -4 155 -40 335 -81 180 -40 477 -107 660 -148 183 -41
336 -75 340 -75 4 0 2 -4 -5 -9 -13 -8 -10 -100 18 -506 5 -77 12 -178 15
-225 3 -47 8 -112 10 -145 3 -33 9 -130 15 -215 5 -85 12 -189 15 -230 3 -41
10 -141 15 -222 5 -80 12 -161 14 -180 3 -18 7 -89 10 -158 13 -278 18 -337
34 -390 l16 -55 7 35 c5 30 7 26 8 -25 l1 -61 626 -909 c344 -501 632 -916
639 -924 11 -11 14 -10 19 5 3 11 82 302 175 649 93 347 256 950 361 1340 105
391 247 917 315 1169 110 408 132 475 156 476 5 0 180 -699 833 -3325 79 -317
83 -330 107 -332 21 -3 95 97 662 887 l637 891 9 82 c7 69 9 74 10 32 2 -48 2
-49 15 -25 16 29 23 86 31 225 3 55 8 121 10 147 3 25 12 124 20 220 8 95 20
220 25 278 6 58 12 130 15 160 6 58 6 61 30 350 8 102 17 205 20 230 3 25 12
133 20 240 9 107 20 239 25 294 11 112 11 176 0 106 l-8 -45 2 45 1 44 305 63
c168 34 465 94 660 134 195 39 359 76 365 81 6 6 6 11 -1 16 -7 4 361 540 982
1431 987 1414 1031 1481 981 1481 -7 0 -253 -52 -547 -115 -482 -103 -1148
-245 -4093 -875 -494 -106 -900 -190 -903 -187 -3 3 -36 74 -74 158 -38 85
-76 155 -83 157 -8 2 -48 -54 -102 -143 -49 -80 -91 -148 -95 -150 -3 -2 -244
53 -535 121 -676 159 -1290 303 -1915 449 -272 64 -675 158 -895 210 -220 52
-546 128 -725 170 -179 42 -478 112 -665 156 -638 150 -766 179 -802 179 -33
0 -35 -2 -31 -27z m833 -209 c385 -90 1510 -354 2500 -586 990 -232 1803 -424
1807 -427 4 -3 -183 -106 -415 -227 -232 -122 -941 -495 -1576 -828 -635 -334
-1158 -605 -1162 -604 -6 2 -1710 2541 -1896 2825 l-17 26 29 -7 c17 -4 345
-82 730 -172z m10558 23 c-4 -8 -444 -640 -978 -1405 -681 -978 -975 -1391
-986 -1388 -13 3 -1990 1087 -2334 1281 -60 33 -262 144 -447 246 -185 101
-334 187 -330 190 4 3 804 176 1777 384 974 208 2110 451 2525 540 415 90 761
164 768 164 8 1 10 -4 5 -12z m-5504 -1118 c67 -150 120 -273 119 -274 -2 -2
-64 7 -138 19 -116 19 -152 21 -260 14 -69 -5 -135 -7 -147 -6 -20 3 -6 29
135 260 86 142 160 258 163 258 4 0 61 -122 128 -271z m-341 -3 c4 -5 -131
-226 -138 -226 -5 1 -170 283 -170 292 0 5 301 -60 308 -66z m-114 -1183 c131
-672 237 -1226 235 -1230 -4 -9 -1696 368 -1721 383 -7 5 70 312 143 564 50
172 122 400 233 735 31 94 66 199 77 235 11 36 32 89 47 119 l27 54 355 187
c195 103 358 185 361 181 3 -3 112 -556 243 -1228z m786 1210 c-1 -14 -168
-278 -176 -278 -10 0 -104 206 -100 220 1 5 61 22 132 36 155 32 144 31 144
22z m342 -174 c161 -89 323 -179 360 -200 l67 -39 40 -105 c23 -58 41 -115 41
-125 0 -11 36 -133 81 -272 103 -325 173 -572 249 -878 81 -328 79 -320 71
-324 -18 -11 -1710 -358 -1726 -354 -7 2 66 360 201 988 117 542 236 1094 265
1228 29 133 54 242 55 242 2 0 135 -73 296 -161z m-1162 -120 c0 -8 45 -9 165
-4 l165 7 0 -63 c0 -35 -14 -440 -30 -899 -16 -459 -30 -853 -31 -875 0 -22
-2 -35 -5 -30 -2 6 -83 415 -180 910 l-175 900 37 33 c39 34 54 39 54 21z
m528 -25 c77 -11 116 -13 125 -6 9 7 22 1 50 -22 l38 -32 -193 -894 c-224
-1039 -205 -1004 -207 -380 -1 350 24 1314 35 1348 2 7 12 11 21 8 10 -2 69
-12 131 -22z m-2099 -840 c-292 -407 -534 -742 -538 -746 -6 -6 -1228 266
-1238 275 -2 3 110 65 249 138 1452 764 2053 1078 2056 1075 2 -2 -236 -336
-529 -742z m4413 59 c626 -344 1137 -627 1136 -628 -12 -10 -1242 -255 -1248
-248 -4 4 -220 316 -480 693 -260 377 -493 713 -517 748 -25 34 -41 62 -37 62
4 0 520 -282 1146 -627z m-3986 361 c-305 -775 -490 -1559 -767 -3247 -12 -75
-24 -136 -26 -133 -6 6 -144 2098 -141 2144 3 38 50 107 503 736 275 381 501
692 503 691 1 -1 -31 -87 -72 -191z m3353 -563 c425 -614 491 -713 491 -744 0
-20 -40 -506 -90 -1081 -49 -574 -90 -1050 -90 -1057 0 -48 -16 44 -65 376
-165 1116 -266 1659 -415 2215 -85 322 -212 714 -303 938 -14 34 -24 62 -22
62 2 0 225 -319 494 -709z m-3404 -861 c968 -216 1435 -325 1435 -335 0 -6
-87 -335 -194 -731 -107 -395 -321 -1189 -475 -1764 -155 -575 -285 -1053
-289 -1064 -6 -15 -133 163 -602 844 -326 474 -595 873 -597 885 -5 26 80 505
107 603 10 37 42 191 70 342 87 466 213 1066 261 1242 11 44 -22 46 284 -22z
m3289 -27 c7 -26 70 -332 110 -538 38 -195 85 -459 141 -790 19 -115 42 -235
50 -265 16 -62 94 -531 98 -588 2 -34 -42 -98 -613 -894 -459 -640 -617 -853
-622 -840 -11 25 -888 3558 -888 3576 0 9 3 16 8 16 4 1 374 77 822 169 448
93 832 170 852 170 27 1 38 -4 42 -16z"/>
</g>
</svg>
